<svg xmlns="http://www.w3.org/2000/svg" viewBox="0 0 1600 2282" width="1600" height="2282" font-family="Inter,Segoe UI,Arial,sans-serif"><rect x="0" y="0" width="1600" height="2282" rx="26" fill="url(#bgcanvas)"/><rect x="0" y="0" width="1600" height="2282" rx="26" fill="url(#vig)"/><rect x="0.5" y="0.5" width="1599" height="2281" rx="26" fill="none" stroke="#22344c"/><text x="60" y="66" font-family="Inter,Segoe UI,Arial,sans-serif" font-size="30" font-weight="800" fill="#f2f6ff">AI-Assisted Incident Investigation Workflow</text><text x="60" y="96" font-family="Inter,Segoe UI,Arial,sans-serif" font-size="14.5" fill="#9fb0c9">A human-in-the-loop support model where AI suggests investigation steps, retrieves operational knowledge, explains system context and helps</text><text x="60" y="117" font-family="Inter,Segoe UI,Arial,sans-serif" font-size="14.5" fill="#9fb0c9">engineers produce RCA outputs.</text><g><circle cx="62" cy="154" r="5" fill="#4ea1ff"/><circle cx="62" cy="154" r="5" fill="#4ea1ff" opacity="0.5" filter="url(#soft)"/><text x="74" y="158" font-family="Inter,Segoe UI,Arial,sans-serif" font-size="12.5" font-weight="600" fill="#9fb0c9">Detection &amp; Retrieval</text><circle cx="253.0" cy="154" r="5" fill="#a78bff"/><circle cx="253.0" cy="154" r="5" fill="#a78bff" opacity="0.5" filter="url(#soft)"/><text x="265.0" y="158" font-family="Inter,Segoe UI,Arial,sans-serif" font-size="12.5" font-weight="600" fill="#9fb0c9">AI Reasoning</text><circle cx="381.0" cy="154" r="5" fill="#5fe0a0"/><circle cx="381.0" cy="154" r="5" fill="#5fe0a0" opacity="0.5" filter="url(#soft)"/><text x="393.0" y="158" font-family="Inter,Segoe UI,Arial,sans-serif" font-size="12.5" font-weight="600" fill="#9fb0c9">Human-Led Investigation</text><circle cx="586.0" cy="154" r="5" fill="#ff6b6b"/><circle cx="586.0" cy="154" r="5" fill="#ff6b6b" opacity="0.5" filter="url(#soft)"/><text x="598.0" y="158" font-family="Inter,Segoe UI,Arial,sans-serif" font-size="12.5" font-weight="600" fill="#9fb0c9">Validated Learning</text></g><defs>
<linearGradient id="bgcanvas" x1="0" y1="0" x2="1" y2="1"><stop offset="0" stop-color="#0b0f14"/><stop offset="0.5" stop-color="#0e141d"/><stop offset="1" stop-color="#0b0f14"/></linearGradient>
<radialGradient id="vig" cx="0.5" cy="0.13" r="0.9"><stop offset="0" stop-color="#16243a" stop-opacity="0.5"/><stop offset="1" stop-color="#0b0f14" stop-opacity="0"/></radialGradient>
<filter id="soft" x="-60%" y="-60%" width="220%" height="220%"><feGaussianBlur stdDeviation="7"/></filter>
<marker id="arrow" viewBox="0 0 10 10" refX="8" refY="5" markerWidth="7" markerHeight="7" orient="auto-start-reverse"><path d="M 0 0 L 9 5 L 0 10 z" fill="#2a3950"/></marker>
<marker id="arrow-coral" viewBox="0 0 10 10" refX="8" refY="5" markerWidth="7" markerHeight="7" orient="auto-start-reverse"><path d="M 0 0 L 9 5 L 0 10 z" fill="#ff6b6b"/></marker>
</defs><defs><linearGradient id="g1" x1="0" y1="0" x2="0" y2="1"><stop offset="0" stop-color="#16273b"/><stop offset="1" stop-color="#0d141d"/></linearGradient></defs><rect x="380.0" y="196" width="400" height="74" rx="14" fill="#4ea1ff" opacity="0.16" filter="url(#soft)"/><rect x="380.0" y="196" width="400" height="74" rx="14" fill="url(#g1)" stroke="#4ea1ff" stroke-opacity="0.45"/><rect x="380.0" y="197" width="5" height="72" rx="2.5" fill="#4ea1ff"/><rect x="380.0" y="197" width="5" height="72" rx="2.5" fill="#4ea1ff" opacity="0.6" filter="url(#soft)"/><text x="402.0" y="217" font-family="Inter,Segoe UI,Arial,sans-serif" font-size="10.5" letter-spacing="2.1" font-weight="700" fill="#4ea1ff">TRIGGER</text><text x="402.0" y="239" font-family="Inter,Segoe UI,Arial,sans-serif" font-size="16.5" font-weight="700" fill="#f2f6ff">CloudWatch Alarm</text><text x="402.0" y="258" font-family="Inter,Segoe UI,Arial,sans-serif" font-size="12.5" fill="#9fb0c9">Automated metric / threshold breach</text><defs><linearGradient id="g9" x1="0" y1="0" x2="0" y2="1"><stop offset="0" stop-color="#16273b"/><stop offset="1" stop-color="#0d141d"/></linearGradient></defs><rect x="820.0" y="196" width="400" height="74" rx="14" fill="#4ea1ff" opacity="0.16" filter="url(#soft)"/><rect x="820.0" y="196" width="400" height="74" rx="14" fill="url(#g9)" stroke="#4ea1ff" stroke-opacity="0.45"/><rect x="820.0" y="197" width="5" height="72" rx="2.5" fill="#4ea1ff"/><rect x="820.0" y="197" width="5" height="72" rx="2.5" fill="#4ea1ff" opacity="0.6" filter="url(#soft)"/><text x="842.0" y="217" font-family="Inter,Segoe UI,Arial,sans-serif" font-size="10.5" letter-spacing="2.1" font-weight="700" fill="#4ea1ff">TRIGGER</text><text x="842.0" y="239" font-family="Inter,Segoe UI,Arial,sans-serif" font-size="16.5" font-weight="700" fill="#f2f6ff">Customer Ticket</text><text x="842.0" y="258" font-family="Inter,Segoe UI,Arial,sans-serif" font-size="12.5" fill="#9fb0c9">Human-reported incident</text><defs><linearGradient id="g17" x1="0" y1="0" x2="0" y2="1"><stop offset="0" stop-color="#16273b"/><stop offset="1" stop-color="#0d141d"/></linearGradient></defs><rect x="580.0" y="316" width="440" height="74" rx="14" fill="#4ea1ff" opacity="0.16" filter="url(#soft)"/><rect x="580.0" y="316" width="440" height="74" rx="14" fill="url(#g17)" stroke="#4ea1ff" stroke-opacity="0.45"/><rect x="580.0" y="317" width="5" height="72" rx="2.5" fill="#4ea1ff"/><rect x="580.0" y="317" width="5" height="72" rx="2.5" fill="#4ea1ff" opacity="0.6" filter="url(#soft)"/><text x="602.0" y="337" font-family="Inter,Segoe UI,Arial,sans-serif" font-size="10.5" letter-spacing="2.1" font-weight="700" fill="#4ea1ff">EVENT BUS</text><text x="602.0" y="359" font-family="Inter,Segoe UI,Arial,sans-serif" font-size="16.5" font-weight="700" fill="#f2f6ff">Amazon EventBridge</text><text x="602.0" y="378" font-family="Inter,Segoe UI,Arial,sans-serif" font-size="12.5" fill="#9fb0c9">Routes the event into the pipeline</text><circle cx="994.0" cy="340" r="15" fill="#101a28" stroke="#8ecbff" stroke-width="1.4"/><circle cx="994.0" cy="340" r="15" fill="#8ecbff" opacity="0.18" filter="url(#soft)"/><text x="994.0" y="344" text-anchor="middle" font-family="Inter,Segoe UI,Arial,sans-serif" font-size="12" font-weight="700" fill="#8ecbff">01</text><path d="M 580.0 270 L 580.0 279.0 Q 580.0 293.0 594.0 293.0 L 786.0 293.0 Q 800.0 293.0 800.0 307.0 L 800.0 316" fill="none" stroke="#2a3950" stroke-width="2.2" marker-end="url(#arrow)"/><path d="M 1020.0 270 L 1020.0 279.0 Q 1020.0 293.0 1006.0 293.0 L 814.0 293.0 Q 800.0 293.0 800.0 307.0 L 800.0 316" fill="none" stroke="#2a3950" stroke-width="2.2" marker-end="url(#arrow)"/><defs><linearGradient id="g30" x1="0" y1="0" x2="0" y2="1"><stop offset="0" stop-color="#16273b"/><stop offset="1" stop-color="#0d141d"/></linearGradient></defs><rect x="580.0" y="436" width="440" height="74" rx="14" fill="#4ea1ff" opacity="0.16" filter="url(#soft)"/><rect x="580.0" y="436" width="440" height="74" rx="14" fill="url(#g30)" stroke="#4ea1ff" stroke-opacity="0.45"/><rect x="580.0" y="437" width="5" height="72" rx="2.5" fill="#4ea1ff"/><rect x="580.0" y="437" width="5" height="72" rx="2.5" fill="#4ea1ff" opacity="0.6" filter="url(#soft)"/><text x="602.0" y="457" font-family="Inter,Segoe UI,Arial,sans-serif" font-size="10.5" letter-spacing="2.1" font-weight="700" fill="#4ea1ff">ORCHESTRATION</text><text x="602.0" y="479" font-family="Inter,Segoe UI,Arial,sans-serif" font-size="16.5" font-weight="700" fill="#f2f6ff">Incident Processing Service</text><text x="602.0" y="498" font-family="Inter,Segoe UI,Arial,sans-serif" font-size="12.5" fill="#9fb0c9">Enriches, dedupes &amp; queues the incident</text><circle cx="994.0" cy="460" r="15" fill="#101a28" stroke="#8ecbff" stroke-width="1.4"/><circle cx="994.0" cy="460" r="15" fill="#8ecbff" opacity="0.18" filter="url(#soft)"/><text x="994.0" y="464" text-anchor="middle" font-family="Inter,Segoe UI,Arial,sans-serif" font-size="12" font-weight="700" fill="#8ecbff">02</text><line x1="800.0" y1="390" x2="800.0" y2="436" stroke="#2a3950" stroke-width="2.2" marker-end="url(#arrow)"/><defs><linearGradient id="g42" x1="0" y1="0" x2="0" y2="1"><stop offset="0" stop-color="#16273b"/><stop offset="1" stop-color="#0d141d"/></linearGradient></defs><rect x="580.0" y="556" width="440" height="74" rx="14" fill="#4ea1ff" opacity="0.16" filter="url(#soft)"/><rect x="580.0" y="556" width="440" height="74" rx="14" fill="url(#g42)" stroke="#4ea1ff" stroke-opacity="0.45"/><rect x="580.0" y="557" width="5" height="72" rx="2.5" fill="#4ea1ff"/><rect x="580.0" y="557" width="5" height="72" rx="2.5" fill="#4ea1ff" opacity="0.6" filter="url(#soft)"/><text x="602.0" y="577" font-family="Inter,Segoe UI,Arial,sans-serif" font-size="10.5" letter-spacing="2.1" font-weight="700" fill="#4ea1ff">WORKFLOW ORCHESTRATION</text><text x="602.0" y="599" font-family="Inter,Segoe UI,Arial,sans-serif" font-size="16.5" font-weight="700" fill="#f2f6ff">AWS Step Functions</text><text x="602.0" y="618" font-family="Inter,Segoe UI,Arial,sans-serif" font-size="12.5" fill="#9fb0c9">Coordinates the investigation workflow</text><circle cx="994.0" cy="580" r="15" fill="#101a28" stroke="#8ecbff" stroke-width="1.4"/><circle cx="994.0" cy="580" r="15" fill="#8ecbff" opacity="0.18" filter="url(#soft)"/><text x="994.0" y="584" text-anchor="middle" font-family="Inter,Segoe UI,Arial,sans-serif" font-size="12" font-weight="700" fill="#8ecbff">03</text><line x1="800.0" y1="510" x2="800.0" y2="556" stroke="#2a3950" stroke-width="2.2" marker-end="url(#arrow)"/><defs><linearGradient id="g54" x1="0" y1="0" x2="0" y2="1"><stop offset="0" stop-color="#16273b"/><stop offset="1" stop-color="#0d141d"/></linearGradient></defs><rect x="550.0" y="676" width="500" height="92" rx="14" fill="#4ea1ff" opacity="0.16" filter="url(#soft)"/><rect x="550.0" y="676" width="500" height="92" rx="14" fill="url(#g54)" stroke="#4ea1ff" stroke-opacity="0.45"/><rect x="550.0" y="677" width="5" height="90" rx="2.5" fill="#4ea1ff"/><rect x="550.0" y="677" width="5" height="90" rx="2.5" fill="#4ea1ff" opacity="0.6" filter="url(#soft)"/><text x="572.0" y="697" font-family="Inter,Segoe UI,Arial,sans-serif" font-size="10.5" letter-spacing="2.1" font-weight="700" fill="#4ea1ff">INTELLIGENCE SERVICE</text><text x="572.0" y="719" font-family="Inter,Segoe UI,Arial,sans-serif" font-size="19" font-weight="700" fill="#f2f6ff">Operational Intelligence Service</text><text x="572.0" y="738" font-family="Inter,Segoe UI,Arial,sans-serif" font-size="12.5" fill="#9fb0c9">Retrieves logs, tickets, docs, release notes, code context and known</text><text x="572.0" y="754" font-family="Inter,Segoe UI,Arial,sans-serif" font-size="12.5" fill="#9fb0c9">issues.</text><circle cx="1024.0" cy="700" r="15" fill="#101a28" stroke="#8ecbff" stroke-width="1.4"/><circle cx="1024.0" cy="700" r="15" fill="#8ecbff" opacity="0.18" filter="url(#soft)"/><text x="1024.0" y="704" text-anchor="middle" font-family="Inter,Segoe UI,Arial,sans-serif" font-size="12" font-weight="700" fill="#8ecbff">04</text><line x1="800.0" y1="630" x2="800.0" y2="676" stroke="#2a3950" stroke-width="2.2" marker-end="url(#arrow)"/><defs><linearGradient id="g67" x1="0" y1="0" x2="0" y2="1"><stop offset="0" stop-color="#16273b"/><stop offset="1" stop-color="#0d141d"/></linearGradient></defs><rect x="88.0" y="814" width="256" height="142" rx="14" fill="#4ea1ff" opacity="0.16" filter="url(#soft)"/><rect x="88.0" y="814" width="256" height="142" rx="14" fill="url(#g67)" stroke="#4ea1ff" stroke-opacity="0.45"/><rect x="88.0" y="815" width="5" height="140" rx="2.5" fill="#4ea1ff"/><rect x="88.0" y="815" width="5" height="140" rx="2.5" fill="#4ea1ff" opacity="0.6" filter="url(#soft)"/><text x="110.0" y="835" font-family="Inter,Segoe UI,Arial,sans-serif" font-size="10.5" letter-spacing="2.1" font-weight="700" fill="#4ea1ff">DATA SOURCE</text><text x="110.0" y="857" font-family="Inter,Segoe UI,Arial,sans-serif" font-size="15" font-weight="700" fill="#f2f6ff">CloudWatch Metrics &amp; Logs</text><text x="110.0" y="876" font-family="Inter,Segoe UI,Arial,sans-serif" font-size="12.5" fill="#9fb0c9">Application logs, infrastructure</text><text x="110.0" y="892" font-family="Inter,Segoe UI,Arial,sans-serif" font-size="12.5" fill="#9fb0c9">metrics and alert context.</text><path d="M 800.0 768 L 800.0 777.0 Q 800.0 791.0 786.0 791.0 L 230.0 791.0 Q 216.0 791.0 216.0 805.0 L 216.0 814" fill="none" stroke="#2a3950" stroke-width="2.2" marker-end="url(#arrow)"/><defs><linearGradient id="g77" x1="0" y1="0" x2="0" y2="1"><stop offset="0" stop-color="#16273b"/><stop offset="1" stop-color="#0d141d"/></linearGradient></defs><rect x="380.0" y="814" width="256" height="142" rx="14" fill="#4ea1ff" opacity="0.16" filter="url(#soft)"/><rect x="380.0" y="814" width="256" height="142" rx="14" fill="url(#g77)" stroke="#4ea1ff" stroke-opacity="0.45"/><rect x="380.0" y="815" width="5" height="140" rx="2.5" fill="#4ea1ff"/><rect x="380.0" y="815" width="5" height="140" rx="2.5" fill="#4ea1ff" opacity="0.6" filter="url(#soft)"/><text x="402.0" y="835" font-family="Inter,Segoe UI,Arial,sans-serif" font-size="10.5" letter-spacing="2.1" font-weight="700" fill="#4ea1ff">DATA SOURCE</text><text x="402.0" y="857" font-family="Inter,Segoe UI,Arial,sans-serif" font-size="15" font-weight="700" fill="#f2f6ff">OpenSearch Operational</text><text x="402.0" y="876" font-family="Inter,Segoe UI,Arial,sans-serif" font-size="15" font-weight="700" fill="#f2f6ff">Index</text><text x="402.0" y="895" font-family="Inter,Segoe UI,Arial,sans-serif" font-size="12.5" fill="#9fb0c9">Searchable logs, events and</text><text x="402.0" y="911" font-family="Inter,Segoe UI,Arial,sans-serif" font-size="12.5" fill="#9fb0c9">investigation history.</text><path d="M 800.0 768 L 800.0 777.0 Q 800.0 791.0 786.0 791.0 L 522.0 791.0 Q 508.0 791.0 508.0 805.0 L 508.0 814" fill="none" stroke="#2a3950" stroke-width="2.2" marker-end="url(#arrow)"/><defs><linearGradient id="g88" x1="0" y1="0" x2="0" y2="1"><stop offset="0" stop-color="#16273b"/><stop offset="1" stop-color="#0d141d"/></linearGradient></defs><rect x="672.0" y="814" width="256" height="142" rx="14" fill="#4ea1ff" opacity="0.16" filter="url(#soft)"/><rect x="672.0" y="814" width="256" height="142" rx="14" fill="url(#g88)" stroke="#4ea1ff" stroke-opacity="0.45"/><rect x="672.0" y="815" width="5" height="140" rx="2.5" fill="#4ea1ff"/><rect x="672.0" y="815" width="5" height="140" rx="2.5" fill="#4ea1ff" opacity="0.6" filter="url(#soft)"/><text x="694.0" y="835" font-family="Inter,Segoe UI,Arial,sans-serif" font-size="10.5" letter-spacing="2.1" font-weight="700" fill="#4ea1ff">DATA SOURCE</text><text x="694.0" y="857" font-family="Inter,Segoe UI,Arial,sans-serif" font-size="15" font-weight="700" fill="#f2f6ff">Operational Knowledge</text><text x="694.0" y="876" font-family="Inter,Segoe UI,Arial,sans-serif" font-size="15" font-weight="700" fill="#f2f6ff">Base</text><text x="694.0" y="895" font-family="Inter,Segoe UI,Arial,sans-serif" font-size="12.5" fill="#9fb0c9">Runbooks, SOPs, ADRs, system docs</text><text x="694.0" y="911" font-family="Inter,Segoe UI,Arial,sans-serif" font-size="12.5" fill="#9fb0c9">and support procedures.</text><path d="M 800.0 768 L 800.0 777.0 Q 800.0 791.0 786.0 791.0 L 814.0 791.0 Q 800.0 791.0 800.0 805.0 L 800.0 814" fill="none" stroke="#2a3950" stroke-width="2.2" marker-end="url(#arrow)"/><defs><linearGradient id="g99" x1="0" y1="0" x2="0" y2="1"><stop offset="0" stop-color="#16273b"/><stop offset="1" stop-color="#0d141d"/></linearGradient></defs><rect x="964.0" y="814" width="256" height="142" rx="14" fill="#4ea1ff" opacity="0.16" filter="url(#soft)"/><rect x="964.0" y="814" width="256" height="142" rx="14" fill="url(#g99)" stroke="#4ea1ff" stroke-opacity="0.45"/><rect x="964.0" y="815" width="5" height="140" rx="2.5" fill="#4ea1ff"/><rect x="964.0" y="815" width="5" height="140" rx="2.5" fill="#4ea1ff" opacity="0.6" filter="url(#soft)"/><text x="986.0" y="835" font-family="Inter,Segoe UI,Arial,sans-serif" font-size="10.5" letter-spacing="2.1" font-weight="700" fill="#4ea1ff">DATA SOURCE</text><text x="986.0" y="857" font-family="Inter,Segoe UI,Arial,sans-serif" font-size="15" font-weight="700" fill="#f2f6ff">Engineering Change</text><text x="986.0" y="876" font-family="Inter,Segoe UI,Arial,sans-serif" font-size="15" font-weight="700" fill="#f2f6ff">Knowledge</text><text x="986.0" y="895" font-family="Inter,Segoe UI,Arial,sans-serif" font-size="12.5" fill="#9fb0c9">Azure DevOps release notes, hot</text><text x="986.0" y="911" font-family="Inter,Segoe UI,Arial,sans-serif" font-size="12.5" fill="#9fb0c9">fixes, rollback history and</text><text x="986.0" y="927" font-family="Inter,Segoe UI,Arial,sans-serif" font-size="12.5" fill="#9fb0c9">project changes.</text><path d="M 800.0 768 L 800.0 777.0 Q 800.0 791.0 814.0 791.0 L 1078.0 791.0 Q 1092.0 791.0 1092.0 805.0 L 1092.0 814" fill="none" stroke="#2a3950" stroke-width="2.2" marker-end="url(#arrow)"/><defs><linearGradient id="g111" x1="0" y1="0" x2="0" y2="1"><stop offset="0" stop-color="#16273b"/><stop offset="1" stop-color="#0d141d"/></linearGradient></defs><rect x="1256.0" y="814" width="256" height="142" rx="14" fill="#4ea1ff" opacity="0.16" filter="url(#soft)"/><rect x="1256.0" y="814" width="256" height="142" rx="14" fill="url(#g111)" stroke="#4ea1ff" stroke-opacity="0.45"/><rect x="1256.0" y="815" width="5" height="140" rx="2.5" fill="#4ea1ff"/><rect x="1256.0" y="815" width="5" height="140" rx="2.5" fill="#4ea1ff" opacity="0.6" filter="url(#soft)"/><text x="1278.0" y="835" font-family="Inter,Segoe UI,Arial,sans-serif" font-size="10.5" letter-spacing="2.1" font-weight="700" fill="#4ea1ff">DATA SOURCE</text><text x="1278.0" y="857" font-family="Inter,Segoe UI,Arial,sans-serif" font-size="15" font-weight="700" fill="#f2f6ff">Historical Tickets</text><text x="1278.0" y="876" font-family="Inter,Segoe UI,Arial,sans-serif" font-size="12.5" fill="#9fb0c9">Previous incidents, customer</text><text x="1278.0" y="892" font-family="Inter,Segoe UI,Arial,sans-serif" font-size="12.5" fill="#9fb0c9">updates, known issues and</text><text x="1278.0" y="908" font-family="Inter,Segoe UI,Arial,sans-serif" font-size="12.5" fill="#9fb0c9">resolutions.</text><path d="M 800.0 768 L 800.0 777.0 Q 800.0 791.0 814.0 791.0 L 1370.0 791.0 Q 1384.0 791.0 1384.0 805.0 L 1384.0 814" fill="none" stroke="#2a3950" stroke-width="2.2" marker-end="url(#arrow)"/><defs><linearGradient id="g122" x1="0" y1="0" x2="0" y2="1"><stop offset="0" stop-color="#211b39"/><stop offset="1" stop-color="#0f1220"/></linearGradient></defs><rect x="580.0" y="1002" width="440" height="88" rx="14" fill="#a78bff" opacity="0.16" filter="url(#soft)"/><rect x="580.0" y="1002" width="440" height="88" rx="14" fill="url(#g122)" stroke="#a78bff" stroke-opacity="0.45"/><rect x="580.0" y="1003" width="5" height="86" rx="2.5" fill="#a78bff"/><rect x="580.0" y="1003" width="5" height="86" rx="2.5" fill="#a78bff" opacity="0.6" filter="url(#soft)"/><text x="602.0" y="1023" font-family="Inter,Segoe UI,Arial,sans-serif" font-size="10.5" letter-spacing="2.1" font-weight="700" fill="#a78bff">FOUNDATION MODEL</text><text x="602.0" y="1045" font-family="Inter,Segoe UI,Arial,sans-serif" font-size="16.5" font-weight="700" fill="#f2f6ff">Amazon Bedrock LLM</text><text x="602.0" y="1064" font-family="Inter,Segoe UI,Arial,sans-serif" font-size="12.5" fill="#9fb0c9">Uses RAG to reason over operational and engineering</text><text x="602.0" y="1080" font-family="Inter,Segoe UI,Arial,sans-serif" font-size="12.5" fill="#9fb0c9">knowledge.</text><circle cx="994.0" cy="1026" r="15" fill="#101a28" stroke="#8ecbff" stroke-width="1.4"/><circle cx="994.0" cy="1026" r="15" fill="#8ecbff" opacity="0.18" filter="url(#soft)"/><text x="994.0" y="1030" text-anchor="middle" font-family="Inter,Segoe UI,Arial,sans-serif" font-size="12" font-weight="700" fill="#8ecbff">05</text><path d="M 216.0 956 L 216.0 993.0 Q 216.0 979.0 230.0 979.0 L 786.0 979.0 Q 800.0 979.0 800.0 965.0 L 800.0 1002" fill="none" stroke="#2a3950" stroke-width="2.2" marker-end="url(#arrow)"/><path d="M 508.0 956 L 508.0 993.0 Q 508.0 979.0 522.0 979.0 L 786.0 979.0 Q 800.0 979.0 800.0 965.0 L 800.0 1002" fill="none" stroke="#2a3950" stroke-width="2.2" marker-end="url(#arrow)"/><path d="M 800.0 956 L 800.0 993.0 Q 800.0 979.0 786.0 979.0 L 814.0 979.0 Q 800.0 979.0 800.0 965.0 L 800.0 1002" fill="none" stroke="#2a3950" stroke-width="2.2" marker-end="url(#arrow)"/><path d="M 1092.0 956 L 1092.0 993.0 Q 1092.0 979.0 1078.0 979.0 L 814.0 979.0 Q 800.0 979.0 800.0 965.0 L 800.0 1002" fill="none" stroke="#2a3950" stroke-width="2.2" marker-end="url(#arrow)"/><path d="M 1384.0 956 L 1384.0 993.0 Q 1384.0 979.0 1370.0 979.0 L 814.0 979.0 Q 800.0 979.0 800.0 965.0 L 800.0 1002" fill="none" stroke="#2a3950" stroke-width="2.2" marker-end="url(#arrow)"/><defs><linearGradient id="g139" x1="0" y1="0" x2="0" y2="1"><stop offset="0" stop-color="#211b39"/><stop offset="1" stop-color="#0f1220"/></linearGradient></defs><rect x="580.0" y="1136" width="440" height="88" rx="14" fill="#a78bff" opacity="0.16" filter="url(#soft)"/><rect x="580.0" y="1136" width="440" height="88" rx="14" fill="url(#g139)" stroke="#a78bff" stroke-opacity="0.45"/><rect x="580.0" y="1137" width="5" height="86" rx="2.5" fill="#a78bff"/><rect x="580.0" y="1137" width="5" height="86" rx="2.5" fill="#a78bff" opacity="0.6" filter="url(#soft)"/><text x="602.0" y="1157" font-family="Inter,Segoe UI,Arial,sans-serif" font-size="10.5" letter-spacing="2.1" font-weight="700" fill="#a78bff">ANALYSIS</text><text x="602.0" y="1179" font-family="Inter,Segoe UI,Arial,sans-serif" font-size="16.5" font-weight="700" fill="#f2f6ff">Root Cause Analysis</text><text x="602.0" y="1198" font-family="Inter,Segoe UI,Arial,sans-serif" font-size="12.5" fill="#9fb0c9">Supports hypothesis generation and evidence-based</text><text x="602.0" y="1214" font-family="Inter,Segoe UI,Arial,sans-serif" font-size="12.5" fill="#9fb0c9">investigation.</text><circle cx="994.0" cy="1160" r="15" fill="#101a28" stroke="#8ecbff" stroke-width="1.4"/><circle cx="994.0" cy="1160" r="15" fill="#8ecbff" opacity="0.18" filter="url(#soft)"/><text x="994.0" y="1164" text-anchor="middle" font-family="Inter,Segoe UI,Arial,sans-serif" font-size="12" font-weight="700" fill="#8ecbff">06</text><line x1="800.0" y1="1090" x2="800.0" y2="1136" stroke="#2a3950" stroke-width="2.2" marker-end="url(#arrow)"/><defs><linearGradient id="g152" x1="0" y1="0" x2="0" y2="1"><stop offset="0" stop-color="#211b39"/><stop offset="1" stop-color="#0f1220"/></linearGradient></defs><rect x="256.0" y="1270" width="320" height="108" rx="14" fill="#a78bff" opacity="0.16" filter="url(#soft)"/><rect x="256.0" y="1270" width="320" height="108" rx="14" fill="url(#g152)" stroke="#a78bff" stroke-opacity="0.45"/><rect x="256.0" y="1271" width="5" height="106" rx="2.5" fill="#a78bff"/><rect x="256.0" y="1271" width="5" height="106" rx="2.5" fill="#a78bff" opacity="0.6" filter="url(#soft)"/><text x="278.0" y="1291" font-family="Inter,Segoe UI,Arial,sans-serif" font-size="10.5" letter-spacing="2.1" font-weight="700" fill="#a78bff">OUTPUT</text><text x="278.0" y="1313" font-family="Inter,Segoe UI,Arial,sans-serif" font-size="15.5" font-weight="700" fill="#f2f6ff">Suggested Investigation Steps</text><text x="278.0" y="1332" font-family="Inter,Segoe UI,Arial,sans-serif" font-size="12.5" fill="#9fb0c9">What to check next and why.</text><path d="M 800.0 1224 L 800.0 1233.0 Q 800.0 1247.0 786.0 1247.0 L 430.0 1247.0 Q 416.0 1247.0 416.0 1261.0 L 416.0 1270" fill="none" stroke="#2a3950" stroke-width="2.2" marker-end="url(#arrow)"/><defs><linearGradient id="g161" x1="0" y1="0" x2="0" y2="1"><stop offset="0" stop-color="#211b39"/><stop offset="1" stop-color="#0f1220"/></linearGradient></defs><rect x="640.0" y="1270" width="320" height="108" rx="14" fill="#a78bff" opacity="0.16" filter="url(#soft)"/><rect x="640.0" y="1270" width="320" height="108" rx="14" fill="url(#g161)" stroke="#a78bff" stroke-opacity="0.45"/><rect x="640.0" y="1271" width="5" height="106" rx="2.5" fill="#a78bff"/><rect x="640.0" y="1271" width="5" height="106" rx="2.5" fill="#a78bff" opacity="0.6" filter="url(#soft)"/><text x="662.0" y="1291" font-family="Inter,Segoe UI,Arial,sans-serif" font-size="10.5" letter-spacing="2.1" font-weight="700" fill="#a78bff">OUTPUT</text><text x="662.0" y="1313" font-family="Inter,Segoe UI,Arial,sans-serif" font-size="15.5" font-weight="700" fill="#f2f6ff">Similar Incidents</text><text x="662.0" y="1332" font-family="Inter,Segoe UI,Arial,sans-serif" font-size="12.5" fill="#9fb0c9">Historical matches, symptoms and previous</text><text x="662.0" y="1348" font-family="Inter,Segoe UI,Arial,sans-serif" font-size="12.5" fill="#9fb0c9">fixes.</text><path d="M 800.0 1224 L 800.0 1233.0 Q 800.0 1247.0 786.0 1247.0 L 814.0 1247.0 Q 800.0 1247.0 800.0 1261.0 L 800.0 1270" fill="none" stroke="#2a3950" stroke-width="2.2" marker-end="url(#arrow)"/><defs><linearGradient id="g171" x1="0" y1="0" x2="0" y2="1"><stop offset="0" stop-color="#211b39"/><stop offset="1" stop-color="#0f1220"/></linearGradient></defs><rect x="1024.0" y="1270" width="320" height="108" rx="14" fill="#a78bff" opacity="0.16" filter="url(#soft)"/><rect x="1024.0" y="1270" width="320" height="108" rx="14" fill="url(#g171)" stroke="#a78bff" stroke-opacity="0.45"/><rect x="1024.0" y="1271" width="5" height="106" rx="2.5" fill="#a78bff"/><rect x="1024.0" y="1271" width="5" height="106" rx="2.5" fill="#a78bff" opacity="0.6" filter="url(#soft)"/><text x="1046.0" y="1291" font-family="Inter,Segoe UI,Arial,sans-serif" font-size="10.5" letter-spacing="2.1" font-weight="700" fill="#a78bff">OUTPUT</text><text x="1046.0" y="1313" font-family="Inter,Segoe UI,Arial,sans-serif" font-size="15.5" font-weight="700" fill="#f2f6ff">Recommended Actions</text><text x="1046.0" y="1332" font-family="Inter,Segoe UI,Arial,sans-serif" font-size="12.5" fill="#9fb0c9">Possible remediation, rollback or</text><text x="1046.0" y="1348" font-family="Inter,Segoe UI,Arial,sans-serif" font-size="12.5" fill="#9fb0c9">escalation paths.</text><path d="M 800.0 1224 L 800.0 1233.0 Q 800.0 1247.0 814.0 1247.0 L 1170.0 1247.0 Q 1184.0 1247.0 1184.0 1261.0 L 1184.0 1270" fill="none" stroke="#2a3950" stroke-width="2.2" marker-end="url(#arrow)"/><defs><linearGradient id="g181" x1="0" y1="0" x2="0" y2="1"><stop offset="0" stop-color="#10331f"/><stop offset="1" stop-color="#0c1715"/></linearGradient></defs><rect x="550.0" y="1424" width="500" height="94" rx="14" fill="#5fe0a0" opacity="0.16" filter="url(#soft)"/><rect x="550.0" y="1424" width="500" height="94" rx="14" fill="url(#g181)" stroke="#5fe0a0" stroke-opacity="0.45"/><rect x="550.0" y="1425" width="5" height="92" rx="2.5" fill="#5fe0a0"/><rect x="550.0" y="1425" width="5" height="92" rx="2.5" fill="#5fe0a0" opacity="0.6" filter="url(#soft)"/><text x="572.0" y="1445" font-family="Inter,Segoe UI,Arial,sans-serif" font-size="10.5" letter-spacing="2.1" font-weight="700" fill="#5fe0a0">HUMAN IN THE LOOP</text><text x="572.0" y="1467" font-family="Inter,Segoe UI,Arial,sans-serif" font-size="19" font-weight="700" fill="#f2f6ff">AI-Assisted Investigation</text><text x="572.0" y="1486" font-family="Inter,Segoe UI,Arial,sans-serif" font-size="12.5" fill="#9fb0c9">Support engineer investigates with AI guidance, validates evidence and</text><text x="572.0" y="1502" font-family="Inter,Segoe UI,Arial,sans-serif" font-size="12.5" fill="#9fb0c9">decides the next action.</text><circle cx="1024.0" cy="1448" r="15" fill="#101a28" stroke="#8ecbff" stroke-width="1.4"/><circle cx="1024.0" cy="1448" r="15" fill="#8ecbff" opacity="0.18" filter="url(#soft)"/><text x="1024.0" y="1452" text-anchor="middle" font-family="Inter,Segoe UI,Arial,sans-serif" font-size="12" font-weight="700" fill="#8ecbff">07</text><path d="M 416.0 1378 L 416.0 1415.0 Q 416.0 1401.0 430.0 1401.0 L 786.0 1401.0 Q 800.0 1401.0 800.0 1387.0 L 800.0 1424" fill="none" stroke="#2a3950" stroke-width="2.2" marker-end="url(#arrow)"/><path d="M 800.0 1378 L 800.0 1415.0 Q 800.0 1401.0 786.0 1401.0 L 814.0 1401.0 Q 800.0 1401.0 800.0 1387.0 L 800.0 1424" fill="none" stroke="#2a3950" stroke-width="2.2" marker-end="url(#arrow)"/><path d="M 1184.0 1378 L 1184.0 1415.0 Q 1184.0 1401.0 1170.0 1401.0 L 814.0 1401.0 Q 800.0 1401.0 800.0 1387.0 L 800.0 1424" fill="none" stroke="#2a3950" stroke-width="2.2" marker-end="url(#arrow)"/><defs><linearGradient id="g196" x1="0" y1="0" x2="0" y2="1"><stop offset="0" stop-color="#10331f"/><stop offset="1" stop-color="#0c1715"/></linearGradient></defs><rect x="116.0" y="1564" width="312" height="116" rx="14" fill="#5fe0a0" opacity="0.16" filter="url(#soft)"/><rect x="116.0" y="1564" width="312" height="116" rx="14" fill="url(#g196)" stroke="#5fe0a0" stroke-opacity="0.45"/><rect x="116.0" y="1565" width="5" height="114" rx="2.5" fill="#5fe0a0"/><rect x="116.0" y="1565" width="5" height="114" rx="2.5" fill="#5fe0a0" opacity="0.6" filter="url(#soft)"/><text x="138.0" y="1585" font-family="Inter,Segoe UI,Arial,sans-serif" font-size="10.5" letter-spacing="2.1" font-weight="700" fill="#5fe0a0">ACTION</text><text x="138.0" y="1607" font-family="Inter,Segoe UI,Arial,sans-serif" font-size="15.5" font-weight="700" fill="#f2f6ff">Update Ticket</text><text x="138.0" y="1626" font-family="Inter,Segoe UI,Arial,sans-serif" font-size="12.5" fill="#9fb0c9">Document findings, evidence and customer</text><text x="138.0" y="1642" font-family="Inter,Segoe UI,Arial,sans-serif" font-size="12.5" fill="#9fb0c9">updates.</text><path d="M 800.0 1518 L 800.0 1527.0 Q 800.0 1541.0 786.0 1541.0 L 286.0 1541.0 Q 272.0 1541.0 272.0 1555.0 L 272.0 1564" fill="none" stroke="#2a3950" stroke-width="2.2" marker-end="url(#arrow)"/><defs><linearGradient id="g206" x1="0" y1="0" x2="0" y2="1"><stop offset="0" stop-color="#10331f"/><stop offset="1" stop-color="#0c1715"/></linearGradient></defs><rect x="468.0" y="1564" width="312" height="116" rx="14" fill="#5fe0a0" opacity="0.16" filter="url(#soft)"/><rect x="468.0" y="1564" width="312" height="116" rx="14" fill="url(#g206)" stroke="#5fe0a0" stroke-opacity="0.45"/><rect x="468.0" y="1565" width="5" height="114" rx="2.5" fill="#5fe0a0"/><rect x="468.0" y="1565" width="5" height="114" rx="2.5" fill="#5fe0a0" opacity="0.6" filter="url(#soft)"/><text x="490.0" y="1585" font-family="Inter,Segoe UI,Arial,sans-serif" font-size="10.5" letter-spacing="2.1" font-weight="700" fill="#5fe0a0">ACTION</text><text x="490.0" y="1607" font-family="Inter,Segoe UI,Arial,sans-serif" font-size="15.5" font-weight="700" fill="#f2f6ff">Resolve Incident</text><text x="490.0" y="1626" font-family="Inter,Segoe UI,Arial,sans-serif" font-size="12.5" fill="#9fb0c9">Apply validated fix and confirm recovery.</text><path d="M 800.0 1518 L 800.0 1527.0 Q 800.0 1541.0 786.0 1541.0 L 638.0 1541.0 Q 624.0 1541.0 624.0 1555.0 L 624.0 1564" fill="none" stroke="#2a3950" stroke-width="2.2" marker-end="url(#arrow)"/><defs><linearGradient id="g215" x1="0" y1="0" x2="0" y2="1"><stop offset="0" stop-color="#10331f"/><stop offset="1" stop-color="#0c1715"/></linearGradient></defs><rect x="820.0" y="1564" width="312" height="116" rx="14" fill="#5fe0a0" opacity="0.16" filter="url(#soft)"/><rect x="820.0" y="1564" width="312" height="116" rx="14" fill="url(#g215)" stroke="#5fe0a0" stroke-opacity="0.45"/><rect x="820.0" y="1565" width="5" height="114" rx="2.5" fill="#5fe0a0"/><rect x="820.0" y="1565" width="5" height="114" rx="2.5" fill="#5fe0a0" opacity="0.6" filter="url(#soft)"/><text x="842.0" y="1585" font-family="Inter,Segoe UI,Arial,sans-serif" font-size="10.5" letter-spacing="2.1" font-weight="700" fill="#5fe0a0">ACTION</text><text x="842.0" y="1607" font-family="Inter,Segoe UI,Arial,sans-serif" font-size="15.5" font-weight="700" fill="#f2f6ff">Escalate</text><text x="842.0" y="1626" font-family="Inter,Segoe UI,Arial,sans-serif" font-size="12.5" fill="#9fb0c9">Route to third line / dev team with</text><text x="842.0" y="1642" font-family="Inter,Segoe UI,Arial,sans-serif" font-size="12.5" fill="#9fb0c9">AI-assisted evidence pack.</text><path d="M 800.0 1518 L 800.0 1527.0 Q 800.0 1541.0 814.0 1541.0 L 962.0 1541.0 Q 976.0 1541.0 976.0 1555.0 L 976.0 1564" fill="none" stroke="#2a3950" stroke-width="2.2" marker-end="url(#arrow)"/><defs><linearGradient id="g225" x1="0" y1="0" x2="0" y2="1"><stop offset="0" stop-color="#10331f"/><stop offset="1" stop-color="#0c1715"/></linearGradient></defs><rect x="1172.0" y="1564" width="312" height="116" rx="14" fill="#5fe0a0" opacity="0.16" filter="url(#soft)"/><rect x="1172.0" y="1564" width="312" height="116" rx="14" fill="url(#g225)" stroke="#5fe0a0" stroke-opacity="0.45"/><rect x="1172.0" y="1565" width="5" height="114" rx="2.5" fill="#5fe0a0"/><rect x="1172.0" y="1565" width="5" height="114" rx="2.5" fill="#5fe0a0" opacity="0.6" filter="url(#soft)"/><text x="1194.0" y="1585" font-family="Inter,Segoe UI,Arial,sans-serif" font-size="10.5" letter-spacing="2.1" font-weight="700" fill="#5fe0a0">ACTION</text><text x="1194.0" y="1607" font-family="Inter,Segoe UI,Arial,sans-serif" font-size="15.5" font-weight="700" fill="#f2f6ff">Create RCA Draft</text><text x="1194.0" y="1626" font-family="Inter,Segoe UI,Arial,sans-serif" font-size="12.5" fill="#9fb0c9">AI helps generate RCA summary, timeline,</text><text x="1194.0" y="1642" font-family="Inter,Segoe UI,Arial,sans-serif" font-size="12.5" fill="#9fb0c9">cause, impact and prevention actions.</text><path d="M 800.0 1518 L 800.0 1527.0 Q 800.0 1541.0 814.0 1541.0 L 1314.0 1541.0 Q 1328.0 1541.0 1328.0 1555.0 L 1328.0 1564" fill="none" stroke="#2a3950" stroke-width="2.2" marker-end="url(#arrow)"/><defs><linearGradient id="g235" x1="0" y1="0" x2="0" y2="1"><stop offset="0" stop-color="#331720"/><stop offset="1" stop-color="#160d12"/></linearGradient></defs><rect x="580.0" y="1726" width="440" height="88" rx="14" fill="#ff6b6b" opacity="0.16" filter="url(#soft)"/><rect x="580.0" y="1726" width="440" height="88" rx="14" fill="url(#g235)" stroke="#ff6b6b" stroke-opacity="0.45"/><rect x="580.0" y="1727" width="5" height="86" rx="2.5" fill="#ff6b6b"/><rect x="580.0" y="1727" width="5" height="86" rx="2.5" fill="#ff6b6b" opacity="0.6" filter="url(#soft)"/><text x="602.0" y="1747" font-family="Inter,Segoe UI,Arial,sans-serif" font-size="10.5" letter-spacing="2.1" font-weight="700" fill="#ff6b6b">FEEDBACK</text><text x="602.0" y="1769" font-family="Inter,Segoe UI,Arial,sans-serif" font-size="16.5" font-weight="700" fill="#f2f6ff">RCA &amp; Lessons Learned</text><text x="602.0" y="1788" font-family="Inter,Segoe UI,Arial,sans-serif" font-size="12.5" fill="#9fb0c9">Engineer validates final RCA and captures improvement</text><text x="602.0" y="1804" font-family="Inter,Segoe UI,Arial,sans-serif" font-size="12.5" fill="#9fb0c9">actions.</text><circle cx="994.0" cy="1750" r="15" fill="#101a28" stroke="#8ecbff" stroke-width="1.4"/><circle cx="994.0" cy="1750" r="15" fill="#8ecbff" opacity="0.18" filter="url(#soft)"/><text x="994.0" y="1754" text-anchor="middle" font-family="Inter,Segoe UI,Arial,sans-serif" font-size="12" font-weight="700" fill="#8ecbff">08</text><path d="M 272.0 1680 L 272.0 1717.0 Q 272.0 1703.0 286.0 1703.0 L 786.0 1703.0 Q 800.0 1703.0 800.0 1689.0 L 800.0 1726" fill="none" stroke="#2a3950" stroke-width="2.2" marker-end="url(#arrow)"/><path d="M 624.0 1680 L 624.0 1717.0 Q 624.0 1703.0 638.0 1703.0 L 786.0 1703.0 Q 800.0 1703.0 800.0 1689.0 L 800.0 1726" fill="none" stroke="#2a3950" stroke-width="2.2" marker-end="url(#arrow)"/><path d="M 976.0 1680 L 976.0 1717.0 Q 976.0 1703.0 962.0 1703.0 L 814.0 1703.0 Q 800.0 1703.0 800.0 1689.0 L 800.0 1726" fill="none" stroke="#2a3950" stroke-width="2.2" marker-end="url(#arrow)"/><path d="M 1328.0 1680 L 1328.0 1717.0 Q 1328.0 1703.0 1314.0 1703.0 L 814.0 1703.0 Q 800.0 1703.0 800.0 1689.0 L 800.0 1726" fill="none" stroke="#2a3950" stroke-width="2.2" marker-end="url(#arrow)"/><defs><linearGradient id="g251" x1="0" y1="0" x2="0" y2="1"><stop offset="0" stop-color="#331720"/><stop offset="1" stop-color="#160d12"/></linearGradient></defs><rect x="580.0" y="1860" width="440" height="88" rx="14" fill="#ff6b6b" opacity="0.16" filter="url(#soft)"/><rect x="580.0" y="1860" width="440" height="88" rx="14" fill="url(#g251)" stroke="#ff6b6b" stroke-opacity="0.45"/><rect x="580.0" y="1861" width="5" height="86" rx="2.5" fill="#ff6b6b"/><rect x="580.0" y="1861" width="5" height="86" rx="2.5" fill="#ff6b6b" opacity="0.6" filter="url(#soft)"/><text x="602.0" y="1881" font-family="Inter,Segoe UI,Arial,sans-serif" font-size="10.5" letter-spacing="2.1" font-weight="700" fill="#ff6b6b">FEEDBACK</text><text x="602.0" y="1903" font-family="Inter,Segoe UI,Arial,sans-serif" font-size="16.5" font-weight="700" fill="#f2f6ff">Knowledge Base Updated</text><text x="602.0" y="1922" font-family="Inter,Segoe UI,Arial,sans-serif" font-size="12.5" fill="#9fb0c9">Approved RCA, new runbooks, release notes and known issues</text><text x="602.0" y="1938" font-family="Inter,Segoe UI,Arial,sans-serif" font-size="12.5" fill="#9fb0c9">are added.</text><circle cx="994.0" cy="1884" r="15" fill="#101a28" stroke="#8ecbff" stroke-width="1.4"/><circle cx="994.0" cy="1884" r="15" fill="#8ecbff" opacity="0.18" filter="url(#soft)"/><text x="994.0" y="1888" text-anchor="middle" font-family="Inter,Segoe UI,Arial,sans-serif" font-size="12" font-weight="700" fill="#8ecbff">09</text><line x1="800.0" y1="1814" x2="800.0" y2="1860" stroke="#2a3950" stroke-width="2.2" marker-end="url(#arrow)"/><defs><linearGradient id="g264" x1="0" y1="0" x2="0" y2="1"><stop offset="0" stop-color="#331720"/><stop offset="1" stop-color="#160d12"/></linearGradient></defs><rect x="560.0" y="1994" width="480" height="90" rx="14" fill="#ff6b6b" opacity="0.16" filter="url(#soft)"/><rect x="560.0" y="1994" width="480" height="90" rx="14" fill="url(#g264)" stroke="#ff6b6b" stroke-opacity="0.45"/><rect x="560.0" y="1995" width="5" height="88" rx="2.5" fill="#ff6b6b"/><rect x="560.0" y="1995" width="5" height="88" rx="2.5" fill="#ff6b6b" opacity="0.6" filter="url(#soft)"/><text x="582.0" y="2015" font-family="Inter,Segoe UI,Arial,sans-serif" font-size="10.5" letter-spacing="2.1" font-weight="700" fill="#ff6b6b">BUSINESS OUTCOME</text><text x="582.0" y="2037" font-family="Inter,Segoe UI,Arial,sans-serif" font-size="19" font-weight="700" fill="#f2f6ff">Future Investigations Improve</text><text x="582.0" y="2056" font-family="Inter,Segoe UI,Arial,sans-serif" font-size="12.5" fill="#9fb0c9">Every validated incident strengthens future AI-assisted support.</text><circle cx="1014.0" cy="2018" r="15" fill="#101a28" stroke="#8ecbff" stroke-width="1.4"/><circle cx="1014.0" cy="2018" r="15" fill="#8ecbff" opacity="0.18" filter="url(#soft)"/><text x="1014.0" y="2022" text-anchor="middle" font-family="Inter,Segoe UI,Arial,sans-serif" font-size="12" font-weight="700" fill="#8ecbff">10</text><line x1="800.0" y1="1948" x2="800.0" y2="1994" stroke="#2a3950" stroke-width="2.2" marker-end="url(#arrow)"/><path d="M 1020.0 1904.0 L 1542.0 1904.0 L 1542.0 885.0 L 1512.0 885.0" fill="none" stroke="#ff6b6b" stroke-width="2" stroke-dasharray="6 5" opacity="0.85" marker-end="url(#arrow-coral)"/><text x="1550.0" y="1394.5" font-family="Inter,Segoe UI,Arial,sans-serif" font-size="11.5" font-weight="600" fill="#ff6b6b" transform="rotate(90 1550.0 1394.5)">validated learning loop</text><rect x="60" y="2140" width="1480" height="86" rx="14" fill="#0f1622" stroke="#22344c"/><rect x="60" y="2141" width="5" height="84" rx="2.5" fill="#8ecbff"/><text x="84" y="2166" font-family="Inter,Segoe UI,Arial,sans-serif" font-size="11" letter-spacing="2" font-weight="700" fill="#8ecbff">HUMAN-IN-THE-LOOP MODEL</text><text x="84" y="2188" font-family="Inter,Segoe UI,Arial,sans-serif" font-size="13.5" fill="#c4d2e6">AI does not replace the support engineer. It assists investigation by retrieving relevant operational knowledge, suggesting investigation paths, explaining system behaviour, identifying similar incidents</text><text x="84" y="2208" font-family="Inter,Segoe UI,Arial,sans-serif" font-size="13.5" fill="#c4d2e6">and helping draft RCA outputs. Engineers remain responsible for validating evidence, applying fixes and approving final customer-facing updates.</text></svg>